<svg width="42" height="56" viewBox="0 0 42 56" fill="none" xmlns="http://www.w3.org/2000/svg">
<path d="M36.9793 42.0402C36.7962 41.8361 36.6841 41.6259 36.2669 41.6257C36.1337 44.5266 36.481 47.5776 34.3722 50.2955C33.998 49.0751 34.4703 47.7606 33.2688 47.0555C32.933 47.4441 32.9565 47.9161 32.7952 48.3182C32.1916 49.8217 31.2838 51.0798 29.9347 52.0028C29.7077 52.1581 29.4628 52.318 29.3003 52.5321C27.5498 54.838 25.0661 55.6798 22.3405 55.9154C19.2391 56.1834 16.1897 55.898 13.6733 53.8374C12.381 52.7793 11.2018 51.5731 9.91408 50.4932C9.18656 49.8831 8.75213 49.0213 8.4438 48.1133C8.3685 47.8915 8.38014 47.5648 8.04875 47.5497C7.7069 47.5341 7.61034 47.8412 7.49626 48.0889C7.15583 48.8279 7.15575 49.636 7.09355 50.6443C4.80209 48.0464 5.45398 44.9344 5.03163 41.9616C3.9222 42.5266 3.8388 43.7966 2.83919 44.3143C2.39679 43.6449 2.44999 42.9109 2.46943 42.2279C2.51598 40.5917 2.77015 38.9789 3.28601 37.4176C3.41438 37.0291 3.48122 36.6739 3.14106 36.3462C1.33029 34.6014 0.692326 32.3191 0.223529 29.959C0.0818253 29.2456 0.0483607 28.5455 0.197668 27.819C0.584311 25.9377 1.83568 24.9383 3.74061 25.0537C4.02795 25.0712 4.36776 25.2474 4.50852 24.8148C4.62425 24.4591 4.67445 24.1423 4.27978 23.8727C3.65379 23.4449 3.33985 22.7784 3.17645 22.0682C2.75448 20.2343 2.30105 18.392 2.97411 16.5174C3.12249 16.1042 2.85033 15.9021 2.60934 15.6761C1.79625 14.9136 1.05701 14.0999 0.585437 13.0671C-1.08146 9.41638 0.94796 5.81898 4.93889 5.4034C5.39027 5.3564 5.71558 5.17998 6.02788 4.8873C9.50918 1.62473 13.6806 0.108193 18.4091 0.00170765C19.4731 -0.0222449 20.5017 0.21018 21.5316 0.422673C21.7957 0.477157 22.1379 0.570536 22.272 0.764893C22.8316 1.57652 23.7159 1.59606 24.5315 1.79774C26.7848 2.35495 28.5969 3.64035 30.2166 5.24289C30.2754 5.30109 30.3531 5.36166 30.3731 5.43452C30.7264 6.72612 31.8577 7.22989 32.8148 7.95007C34.5272 9.2386 35.4729 11.0376 35.8719 13.1258C35.9412 13.4885 36.0333 13.8144 36.2776 14.1034C37.2578 15.2627 37.7002 16.6365 37.5528 18.1184C37.3572 20.0841 37.5253 22.1208 36.5246 23.9588C36.2309 24.4981 36.8516 25.3797 37.5432 25.3135C40.095 25.0692 41.4227 26.9897 41.0896 29.7064C40.8196 31.9088 39.9033 33.7903 38.3523 35.3494C37.8988 35.8052 37.7827 36.1755 38.0001 36.8012C38.6678 38.7223 39.03 40.7051 38.9175 42.7539C38.8949 43.1655 38.8948 43.5813 38.531 43.9849C37.7756 43.5425 37.5212 42.7057 36.9793 42.0402ZM19.3699 14.0975C19.3667 13.6541 19.3676 13.2107 19.3595 12.7674C19.3257 10.9148 19.8362 10.5819 17.3177 11.1821C16.5403 11.3674 16.2758 11.7148 16.2594 12.4774C16.2422 13.2785 16.0857 14.0766 15.99 14.8761C15.3638 13.9249 15.4995 12.8499 15.2519 11.8096C13.912 12.1233 12.7271 12.6521 11.5093 13.0919C10.6425 13.405 10.3312 13.9704 10.2822 14.8274C10.2392 15.5776 10.1089 16.3228 10.0172 17.0702C9.94261 17.0725 9.868 17.0749 9.7934 17.0772C9.33394 16.2182 9.70824 15.137 9.18117 14.2425C8.33954 14.4811 7.66341 14.9764 6.929 15.3488C6.52658 15.5528 6.29766 15.8483 6.25406 16.3135C6.16633 17.2496 6.05666 18.1841 5.93646 19.1167C5.89507 19.4379 5.95207 19.8249 5.5182 20.0643C5.18816 18.8752 5.4831 17.6951 5.21936 16.5619C4.47973 16.5549 4.08334 16.9857 3.97999 17.5337C3.65808 19.2406 4.00638 20.8847 4.68079 22.4596C4.7898 22.7141 5.00813 22.9777 5.40211 22.8785C6.64882 22.5646 7.15026 21.9458 7.2179 20.6074C7.24189 20.1328 7.19688 19.64 7.57013 19.1325C7.88823 19.7797 7.75497 20.3688 7.79778 20.9309C7.84615 21.566 8.03342 21.8595 8.79005 21.7342C9.64276 21.5929 10.3412 21.171 11.0905 20.8263C11.4816 20.6464 11.5716 20.3364 11.5526 19.9426C11.5033 18.9163 11.5782 17.895 11.7143 16.8778C11.7478 16.6274 11.6911 16.3276 12.0187 16.2007C12.3108 16.5021 12.2309 16.8486 12.2559 17.1713C12.3157 17.944 12.3817 18.7164 12.4354 19.4895C12.4701 19.9903 12.681 20.1694 13.1976 20.0304C14.0527 19.8004 14.9121 19.5424 15.7865 19.4399C16.6991 19.333 16.9732 18.8575 17.0486 18.0243C17.1267 17.1616 17.3031 16.2992 17.7301 15.4848C18.116 15.7691 18.0026 16.0807 17.9881 16.3743C17.9537 17.0657 17.9175 17.7571 17.8995 18.449C17.8883 18.8781 18.0547 19.1165 18.5502 19.0711C19.9054 18.9471 21.2568 19.0107 22.6125 19.1425C23.8532 19.2631 23.8499 19.2155 24.1025 18.0184C24.2683 17.233 24.4588 16.4528 24.642 15.6711C24.7193 15.3411 24.7336 14.9803 25.0087 14.7188C25.2843 14.9363 25.1482 15.1644 25.1363 15.3706C25.0742 16.4487 25.0076 17.5265 24.9381 18.6042C24.9017 19.1688 25.1426 19.4518 25.7173 19.5636C26.6671 19.7484 27.6062 19.9945 28.5416 20.2453C29.1227 20.4011 29.4386 20.2428 29.5365 19.626C29.5895 19.292 29.5656 18.9103 29.8476 18.649C30.1717 18.7295 30.2246 19.0005 30.1921 19.1807C29.9174 20.704 30.9004 21.2066 32.077 21.5753C32.287 21.6411 32.4807 21.7572 32.6848 21.8432C33.947 22.3746 34.1167 22.2748 34.3496 20.9139C34.4838 20.1294 34.6407 19.3487 34.7875 18.5663C34.8833 18.577 34.9792 18.5877 35.0751 18.5984C35.0751 19.6373 35.0681 20.6764 35.0793 21.7152C35.0827 22.0258 34.9288 22.5002 35.3662 22.555C35.8574 22.6166 35.8432 22.0926 35.893 21.7693C36.049 20.7578 36.1662 19.74 36.2847 18.723C36.3922 17.7994 36.3001 16.8871 35.9568 16.0251C35.5776 15.073 34.9679 14.3239 33.8513 13.9799C33.4497 15.4109 33.4961 16.9036 32.6989 18.1489C32.7161 17.0062 32.6076 15.8789 32.7806 14.7513C32.9709 13.5107 32.8341 13.3325 31.6741 12.9075C30.7121 12.5549 29.7462 12.2127 28.7859 11.8554C28.3394 11.6892 28.1303 11.8027 28.0586 12.2996C27.9203 13.2571 27.7472 14.211 27.5431 15.1566C27.4903 15.4009 27.5266 15.768 27.0672 15.9032C27.2234 14.6038 27.1321 13.366 27.1621 12.1294C27.1748 11.6044 26.9706 11.3232 26.4396 11.1974C24.8445 10.8199 23.2424 10.5421 21.5945 10.5791C20.3183 10.6078 20.3482 10.5961 20.2786 11.8672C20.2114 13.0945 19.9947 14.3004 19.5135 15.6727C19.2795 15.0595 19.3853 14.6508 19.3699 14.0975ZM22.5455 31.5325C22.1292 30.9874 21.9283 30.3579 21.8538 29.688C21.7315 28.5882 21.6243 27.4866 21.5157 26.3853C21.4703 25.9245 21.3016 25.5638 20.7772 25.5549C20.3014 25.5469 19.9966 25.7922 19.9047 26.2742C19.8736 26.4371 19.8304 26.598 19.8059 26.7618C19.6704 27.6644 19.5639 28.5721 19.4007 29.4696C19.125 30.9855 18.7192 31.4013 17.2643 31.6718C16.9121 31.7373 16.6472 31.8905 16.4165 32.1414C14.5602 34.1596 12.685 36.166 11.0609 38.3783C10.1719 39.5894 9.75671 40.9738 10.4283 42.4442C11.0424 43.7887 12.185 44.5768 13.6102 44.6816C15.5942 44.8275 17.5852 44.9397 19.5815 44.9456C22.1531 44.9531 24.7099 44.501 27.288 44.7386C27.6321 44.7703 28.0059 44.6611 28.3436 44.5496C29.4831 44.1731 30.6451 42.5843 30.4465 41.6448C29.7933 38.5545 28.5796 35.7341 26.3525 33.4284C25.9811 33.0439 25.6045 32.6321 24.9981 32.4471C24.9067 33.0474 24.9203 33.6535 24.2536 33.8572C23.318 34.1431 22.3469 34.3527 21.5872 35.3963C21.4378 34.0953 21.719 33.2203 22.3737 32.4457C22.573 32.2098 22.9506 32.0159 22.5455 31.5325ZM27.7575 4.76516C25.2471 2.73891 22.3087 2.487 19.2105 2.80673C19.6543 2.15858 20.4245 2.21547 21.063 1.62474C17.7587 0.830102 14.7839 1.46733 11.8679 2.57932C8.9175 3.70445 6.64217 5.75331 4.62769 8.25488C4.34834 7.63386 4.90053 7.31551 4.73831 6.90132C3.20559 6.67655 1.57266 8.06999 1.36733 9.66525C1.19554 10.9999 1.39467 12.2794 2.20537 13.3836C3.17245 14.7008 3.26603 14.5339 3.9391 13.3236C5.6817 10.1901 8.07497 7.71829 11.5129 6.42774C11.7942 6.32217 12.0991 6.0819 12.5576 6.41882C9.50769 7.8672 7.27329 10.0728 5.76709 13.0166C7.77054 11.3609 9.76029 9.718 12.5324 9.63278C10.1373 10.5305 8.12965 11.9285 6.46524 14.0522C7.04672 13.9736 7.38722 13.7274 7.74739 13.5413C9.89128 12.4333 12.0933 11.4688 14.3905 10.718C18.2945 9.44216 22.2338 8.82154 26.3102 9.84209C28.627 10.4221 30.8651 11.2204 33.0828 12.0913C33.3784 12.2073 33.7497 12.4088 34.0154 12.1122C34.2815 11.8153 34.0352 11.474 33.8902 11.1897C32.8616 9.17384 31.2108 7.99892 28.9905 7.60568C27.5358 7.34802 26.066 7.40051 24.5991 7.37762C24.2931 7.37285 23.9285 7.4956 23.657 7.01849C25.5826 6.46569 27.5293 6.77497 29.5324 6.70703C29.1756 5.73689 28.453 5.34363 27.7575 4.76516ZM17.3641 46.8269C15.4959 46.6252 13.6094 46.5459 11.8036 45.9417C11.1765 45.7318 11.0497 46.0372 11.2158 46.5831C11.3689 47.086 11.5113 47.5925 11.6772 48.0912C12.5204 50.6254 14.1521 52.514 16.456 53.823C16.8446 54.0438 17.343 54.4007 17.7706 54.0983C18.2503 53.7591 17.76 53.2888 17.6854 52.891C17.4966 51.8843 17.5337 50.946 18.1298 50.075C18.6148 50.2513 18.5634 50.6214 18.6398 50.9323C18.8388 51.7425 19.0203 52.5806 19.778 53.0787C21.1878 54.0054 22.7414 54.238 24.3054 53.6416C27.7182 52.3402 29.6188 49.7899 30.151 46.1996C30.1886 45.9456 30.2914 45.644 29.9805 45.4412C29.5584 45.504 29.2186 45.7561 28.8524 45.942C28.0783 46.3349 27.2657 46.5887 26.4012 46.6801C23.4461 46.9923 20.4849 46.9431 17.3641 46.8269ZM6.59126 25.8786C6.9382 26.6477 6.62216 27.4928 6.91487 28.2948C7.24203 29.191 7.38558 29.3379 8.26053 28.937C11.4617 27.47 14.5504 25.7933 17.53 23.9177C17.8182 23.7364 18.1839 23.5986 18.2819 23.2041C17.4848 22.6012 15.7333 22.3842 14.9031 22.7941C13.8358 23.3209 12.7779 23.8667 11.7112 24.3948C11.3935 24.552 11.0739 24.7722 10.5976 24.6043C11.0125 24.2481 11.3429 23.9618 11.6764 23.6792C11.8767 23.5094 12.231 23.4288 12.1278 23.0687C12.0195 22.6905 11.662 22.6077 11.3321 22.5774C10.3881 22.4909 9.45201 22.5959 8.52357 22.7667C6.23845 23.1869 6.05357 23.4697 6.59126 25.8786ZM27.0911 24.646C27.1783 24.5384 27.2577 24.423 27.3543 24.3247C27.6817 23.9915 27.7449 23.6245 27.5799 23.1826C27.3967 22.6918 26.9926 22.7344 26.6121 22.7424C25.9764 22.7557 25.3414 22.8055 24.7058 22.8317C22.8037 22.9101 22.6209 23.1709 22.6131 25.2788C22.6113 25.7456 22.753 26.1471 23.0207 26.5164C23.1497 26.6942 23.3552 26.9038 23.1273 27.0961C22.4983 27.627 22.8643 28.2318 22.9934 28.7896C23.2211 29.7734 23.38 29.8289 24.3002 29.457C27.4701 28.1761 30.4376 26.503 33.3681 24.7612C33.7324 24.5447 34.2095 24.4331 34.3753 23.9593C33.7918 23.2521 32.0958 22.876 31.275 23.2769C30.0807 23.8604 28.9082 24.4914 27.697 25.037C26.4104 25.6166 25.1721 26.3227 23.7726 26.6502C24.6835 25.7223 25.9302 25.3729 27.0911 24.646ZM23.7556 20.5866C20.5509 20.192 17.3732 20.1757 14.1772 21.12C14.4521 21.5792 14.7592 21.4654 15.0118 21.4659C16.0657 21.4682 17.1038 21.6074 18.1328 21.8117C18.8106 21.9462 19.4631 22.1167 19.9142 22.747C20.1959 23.1404 21.4253 23.2286 21.6465 22.878C22.2431 21.932 23.2119 21.9526 24.1267 21.8098C24.8151 21.7025 25.5324 21.7342 26.2653 21.4045C25.5517 20.6934 24.6735 20.8066 23.7556 20.5866ZM9.24094 32.2201C9.3106 32.8902 9.49473 33.5297 9.84839 34.1015C10.151 34.5907 10.5699 35.0202 11.1985 34.8709C12.9567 34.4535 14.1449 33.1729 15.6275 32.0257C15.307 31.9244 15.208 31.8665 15.1085 31.8655C13.3364 31.8489 11.5642 31.8364 9.79206 31.8317C9.57753 31.8311 9.33397 31.8213 9.24094 32.2201ZM31.9579 42.9446C31.9579 44.076 31.9579 45.2073 31.9579 46.4169C32.6871 45.777 32.552 44.9493 32.6881 44.2566C32.9821 44.1978 33.129 44.3416 33.2925 44.4374C33.4609 44.5361 33.6315 44.6584 33.8282 44.5281C34.0571 44.3766 33.9962 44.1361 33.9652 43.9225C33.9375 43.7321 33.8522 43.5497 33.8271 43.3592C33.6792 42.2347 33.5414 41.1089 33.3972 39.9591C34.0529 39.9762 34.3008 40.7078 34.948 40.5103C35.0579 39.6911 34.6581 39.1498 34.1035 38.6816C33.7717 38.8008 34.046 39.2006 33.6759 39.3194C33.3681 38.9842 33.0579 38.6029 32.7017 38.2709C32.3623 37.9547 32.1145 37.4632 31.5253 37.4898C31.3877 37.8929 31.6181 38.1696 31.7367 38.4633C32.1407 39.4631 32.5997 40.4424 32.9645 41.4559C33.4911 42.9193 33.4203 42.993 31.9579 42.9446ZM3.78532 28.7613C4.17199 28.7941 4.55623 28.8039 4.93495 28.6903C5.24685 28.5966 5.64901 28.5805 5.61918 28.1239C5.59136 27.698 5.64365 27.1927 5.12473 26.986C4.23963 26.6335 3.32869 26.5504 2.50467 27.0979C1.66947 27.6528 1.3614 28.5022 1.524 29.4842C1.65889 30.2989 1.82505 31.1112 2.12958 31.8858C2.34441 32.4323 2.4346 33.045 2.92011 33.4723C3.1584 33.2363 2.995 33.0245 2.97817 32.8217C2.90059 31.8871 2.49424 30.9942 2.57145 30.0461C2.62464 29.393 2.66087 28.6467 3.78532 28.7613ZM29.7902 34.1538C30.9005 34.4163 31.7898 34.0255 32.5263 33.2121C32.7118 33.0073 32.8944 32.7607 32.7673 32.4673C32.6359 32.1639 32.3205 32.1699 32.0491 32.1686C30.5318 32.1612 29.0144 32.1569 27.4973 32.1742C27.1936 32.1777 26.8111 32.1234 26.6711 32.6632C27.6086 33.249 28.5309 33.8839 29.7902 34.1538ZM16.5839 25.7833C14.1429 27.2156 11.6296 28.5154 8.96902 29.7967C9.60859 30.2339 10.1343 30.1388 10.5985 29.9182C13.2708 28.6489 15.8949 27.287 18.3841 25.68C18.7699 25.431 18.9531 25.1095 18.7325 24.5985C17.9507 24.847 17.3688 25.3768 16.5839 25.7833ZM28.2725 28.8261C27.4738 29.2514 26.587 29.5234 25.7271 30.1468C26.3334 30.3902 26.7835 30.4138 27.1863 30.235C29.7152 29.1126 32.1426 27.7953 34.4953 26.3404C34.8284 26.1345 34.9952 25.849 34.8017 25.305C32.63 26.4762 30.5059 27.6217 28.2725 28.8261ZM38.0881 28.1576C38.2529 27.4599 37.7286 27.3772 37.2738 27.3022C36.6274 27.1956 36.1451 27.4682 35.8886 28.0832C35.7695 28.3689 35.6772 28.6695 35.9766 28.9148C36.2739 29.1584 36.5837 29.1559 36.885 28.9254C37.2348 28.6578 37.561 28.3544 38.0881 28.1576ZM17.7741 28.4702C18.0676 28.3879 18.2667 28.2531 17.9452 27.9797C17.783 27.8418 17.5236 27.6951 17.3669 27.938C17.1844 28.2209 17.3893 28.3894 17.7741 28.4702Z" fill="white"/>
<path d="M19.6131 36.1287C19.1891 35.2242 18.3936 34.7923 17.704 34.2433C16.6725 33.4221 16.7903 32.4093 17.9349 31.9173C18.453 31.6947 18.8673 31.9081 19.2389 32.2013C20.1667 32.9333 20.502 33.9585 20.3879 35.0803C20.2655 36.282 20.4355 36.5417 21.7475 36.4316C21.3273 38.0889 21.0746 39.7354 20.8393 41.4036C20.2751 39.6751 20.4571 37.8189 19.6131 36.1287Z" fill="white"/>
</svg>
